<?xml version="1.0" encoding="UTF-8" standalone="no"?>
<!DOCTYPE svg PUBLIC "-//W3C//DTD SVG 1.1//EN" "http://www.w3.org/Graphics/SVG/1.1/DTD/svg11.dtd">
<!-- Created with Vectornator (http://vectornator.io/) -->
<svg  stroke-miterlimit="10" style="fill-rule:nonzero;clip-rule:evenodd;stroke-linecap:round;stroke-linejoin:round;" version="1.1" viewBox="0 0 500 500" fill="currentColor" xml:space="preserve" xmlns="http://www.w3.org/2000/svg" xmlns:xlink="http://www.w3.org/1999/xlink">
<defs/>
<g id="watermark_1_">
<g opacity="1">
<g opacity="0.61">
<g opacity="1">
<g opacity="1">
<path d="M213.765 461.172L208.204 474.017L205.268 474.017L199.726 461.172L202.938 461.172L206.846 470.347L210.81 461.172L213.765 461.172Z" fill="#ffffff" fill-rule="nonzero" opacity="1" stroke="none"/>
<path d="M223.507 469.741L216.038 469.741C216.313 470.971 217.359 471.723 218.864 471.723C219.91 471.723 220.662 471.411 221.341 470.769L222.864 472.42C221.947 473.466 220.57 474.017 218.79 474.017C215.377 474.017 213.156 471.87 213.156 468.934C213.156 465.98 215.413 463.851 218.423 463.851C221.322 463.851 223.561 465.796 223.561 468.971C223.562 469.191 223.526 469.503 223.507 469.741M216.002 468.071L220.865 468.071C220.663 466.823 219.727 466.016 218.443 466.016C217.139 466.016 216.204 466.805 216.002 468.071" fill="#ffffff" fill-rule="nonzero" opacity="1" stroke="none"/>
<path d="M224.735 468.934C224.735 465.961 227.029 463.851 230.24 463.851C232.314 463.851 233.947 464.75 234.663 466.365L232.443 467.558C231.911 466.622 231.122 466.2 230.222 466.2C228.772 466.2 227.635 467.209 227.635 468.934C227.635 470.659 228.773 471.668 230.222 471.668C231.121 471.668 231.91 471.264 232.443 470.31L234.663 471.521C233.947 473.099 232.314 474.016 230.24 474.016C227.029 474.017 224.735 471.907 224.735 468.934" fill="#ffffff" fill-rule="nonzero" opacity="1" stroke="none"/>
<path d="M242.828 473.393C242.241 473.815 241.378 474.017 240.497 474.017C238.167 474.017 236.809 472.824 236.809 470.475L236.809 466.42L235.286 466.42L235.286 464.218L236.809 464.218L236.809 461.814L239.672 461.814L239.672 464.218L242.131 464.218L242.131 466.42L239.672 466.42L239.672 470.439C239.672 471.283 240.13 471.742 240.901 471.742C241.323 471.742 241.745 471.614 242.057 471.375L242.828 473.393Z" fill="#ffffff" fill-rule="nonzero" opacity="1" stroke="none"/>
</g>
<path d="M262.474 463.997L262.474 466.64C262.236 466.622 262.052 466.603 261.832 466.603C260.254 466.603 259.208 467.465 259.208 469.356L259.208 474.017L256.345 474.017L256.345 464.144L259.079 464.144L259.079 465.447C259.776 464.493 260.951 463.997 262.474 463.997" fill="#ffffff" fill-rule="nonzero" opacity="1" stroke="none"/>
<path d="M263.299 472.53L264.308 470.291C265.391 471.08 267.005 471.63 268.547 471.63C270.309 471.63 271.024 471.043 271.024 470.254C271.024 467.85 263.555 469.502 263.555 464.73C263.555 462.546 265.317 460.73 268.968 460.73C270.583 460.73 272.235 461.115 273.427 461.868L272.509 464.125C271.316 463.446 270.087 463.116 268.949 463.116C267.188 463.116 266.509 463.776 266.509 464.584C266.509 466.951 273.977 465.318 273.977 470.034C273.977 472.181 272.197 474.016 268.527 474.016C266.492 474.017 264.437 473.411 263.299 472.53" fill="#ffffff" fill-rule="nonzero" opacity="1" stroke="none"/>
<path d="M285.428 469.741L277.959 469.741C278.234 470.971 279.28 471.723 280.785 471.723C281.831 471.723 282.583 471.411 283.262 470.769L284.785 472.42C283.867 473.466 282.491 474.017 280.711 474.017C277.298 474.017 275.077 471.87 275.077 468.934C275.077 465.98 277.334 463.851 280.344 463.851C283.244 463.851 285.482 465.796 285.482 468.971C285.484 469.191 285.447 469.503 285.428 469.741M277.923 468.071L282.786 468.071C282.584 466.823 281.648 466.016 280.364 466.016C279.061 466.016 278.125 466.805 277.923 468.071" fill="#ffffff" fill-rule="nonzero" opacity="1" stroke="none"/>
<path d="M297.007 469.741L289.538 469.741C289.813 470.971 290.859 471.723 292.364 471.723C293.41 471.723 294.162 471.411 294.841 470.769L296.364 472.42C295.446 473.466 294.07 474.017 292.29 474.017C288.877 474.017 286.656 471.87 286.656 468.934C286.656 465.98 288.913 463.851 291.923 463.851C294.822 463.851 297.061 465.796 297.061 468.971C297.062 469.191 297.025 469.503 297.007 469.741M289.501 468.071L294.364 468.071C294.162 466.823 293.226 466.016 291.942 466.016C290.639 466.016 289.703 466.805 289.501 468.071" fill="#ffffff" fill-rule="nonzero" opacity="1" stroke="none"/>
<path d="M303.208 470.145L301.831 471.503L301.831 474.017L298.969 474.017L298.969 460.401L301.831 460.401L301.831 468.108L306.016 464.144L309.429 464.144L305.318 468.328L309.796 474.017L306.327 474.017L303.208 470.145Z" fill="#ffffff" fill-rule="nonzero" opacity="1" stroke="none"/>
<path d="M256.601 475.359L256.601 475.359L253.741 472.499C253.306 473.007 252.788 473.442 252.207 473.783C252.115 473.852 252.021 473.919 251.924 473.982L254.951 477.009C255.407 477.465 256.146 477.465 256.601 477.009C257.057 476.554 257.057 475.815 256.601 475.359" fill="#ffffff" fill-rule="nonzero" opacity="1" stroke="none"/>
<path d="M249.984 463.244C250.205 463.071 250.479 462.963 250.781 462.963C250.823 462.963 250.864 462.965 250.905 462.969C250.691 462.813 250.427 462.72 250.141 462.72C249.746 462.72 249.397 462.9 249.16 463.178C249.109 463.178 249.06 463.184 249.009 463.186C249.048 463.109 249.073 463.024 249.073 462.931C249.073 462.697 248.93 462.497 248.727 462.412C248.814 462.538 248.865 462.691 248.865 462.857C248.865 462.979 248.834 463.094 248.784 463.198C245.973 463.399 243.754 465.737 243.754 468.598C243.754 471.591 246.18 474.018 249.174 474.018C252.167 474.018 254.594 471.592 254.594 468.598C254.595 465.879 252.593 463.635 249.984 463.244M247.983 464.656C248.418 464.656 248.827 464.768 249.182 464.965C249.556 464.72 250.002 464.578 250.481 464.578C251.192 464.578 251.829 464.89 252.265 465.384C251.83 465.005 251.261 464.774 250.638 464.774C250.189 464.774 249.768 464.894 249.404 465.103C249.325 465.149 249.248 465.199 249.175 465.253C249.11 465.205 249.042 465.16 248.971 465.119C248.602 464.9 248.171 464.775 247.711 464.775C247.411 464.775 247.123 464.829 246.857 464.927C247.196 464.754 247.578 464.656 247.983 464.656M251.772 469.098C251.887 469.403 251.953 469.732 251.953 470.077C251.953 471.611 250.709 472.854 249.175 472.854C247.641 472.854 246.398 471.611 246.398 470.077C246.398 469.732 246.464 469.403 246.579 469.098C245.959 468.716 245.544 468.034 245.544 467.252C245.544 466.055 246.515 465.084 247.712 465.084C248.277 465.084 248.79 465.302 249.175 465.656C249.561 465.302 250.074 465.084 250.639 465.084C251.836 465.084 252.807 466.055 252.807 467.252C252.807 468.034 252.392 468.716 251.772 469.098" fill="#ffffff" fill-rule="nonzero" opacity="1" stroke="none"/>
<path d="M251.666 467.061C251.666 467.558 251.262 467.962 250.765 467.962C250.268 467.962 249.864 467.558 249.864 467.061C249.864 466.564 250.268 466.16 250.765 466.16C250.866 466.16 250.962 466.177 251.052 466.207C251.022 466.269 251.007 466.339 251.007 466.411C251.007 466.684 251.228 466.905 251.501 466.905C251.551 466.905 251.6 466.897 251.647 466.883C251.66 466.941 251.666 467 251.666 467.061" fill="#ffffff" fill-rule="nonzero" opacity="1" stroke="none"/>
<path d="M248.255 467.061C248.255 467.437 247.95 467.742 247.574 467.742C247.198 467.742 246.893 467.437 246.893 467.061C246.893 466.685 247.198 466.38 247.574 466.38C247.65 466.38 247.723 466.393 247.791 466.415C247.768 466.462 247.757 466.515 247.757 466.57C247.757 466.776 247.924 466.944 248.131 466.944C248.169 466.944 248.206 466.938 248.241 466.927C248.25 466.97 248.255 467.015 248.255 467.061" fill="#ffffff" fill-rule="nonzero" opacity="1" stroke="none"/>
<g opacity="1">
<g opacity="1">
<path d="M242.908 467.83L243.524 467.83L243.524 467.83L243.524 468.446L243.524 468.446L242.908 468.446L242.908 468.446L242.908 467.83L242.908 467.83Z" fill="#ffffff" fill-rule="nonzero" opacity="1" stroke="none"/>
<path d="M254.827 467.83L255.443 467.83L255.443 467.83L255.443 468.446L255.443 468.446L254.827 468.446L254.827 468.446L254.827 467.83L254.827 467.83Z" fill="#ffffff" fill-rule="nonzero" opacity="1" stroke="none"/>
<path d="M255.205 468.082L255.065 468.082C255.065 464.834 252.423 462.192 249.175 462.192C245.927 462.192 243.285 464.834 243.285 468.082L243.145 468.082C243.145 466.471 243.772 464.957 244.911 463.818C246.05 462.679 247.564 462.052 249.175 462.052C250.786 462.052 252.3 462.679 253.439 463.818C254.578 464.957 255.205 466.471 255.205 468.082" fill="#ffffff" fill-rule="nonzero" opacity="1" stroke="none"/>
</g>
<path d="M248.868 461.814L249.484 461.814L249.484 461.814L249.484 462.43L249.484 462.43L248.868 462.43L248.868 462.43L248.868 461.814L248.868 461.814Z" fill="#ffffff" fill-rule="nonzero" opacity="1" stroke="none"/>
<path d="M244.95 462.052L253.4 462.052L253.4 462.052L253.4 462.192L253.4 462.192L244.95 462.192L244.95 462.192L244.95 462.052L244.95 462.052Z" fill="#ffffff" fill-rule="nonzero" opacity="1" stroke="none"/>
<path d="M245.174 462.15C245.174 462.258 245.086 462.346 244.978 462.346C244.87 462.346 244.782 462.258 244.782 462.15C244.782 462.042 244.87 461.954 244.978 461.954C245.086 461.954 245.174 462.042 245.174 462.15" fill="#ffffff" fill-rule="nonzero" opacity="1" stroke="none"/>
<path d="M253.596 462.15C253.596 462.258 253.508 462.346 253.4 462.346C253.292 462.346 253.204 462.258 253.204 462.15C253.204 462.042 253.292 461.954 253.4 461.954C253.509 461.954 253.596 462.042 253.596 462.15" fill="#ffffff" fill-rule="nonzero" opacity="1" stroke="none"/>
</g>
</g>
<path d="M314.356 473.409C314.356 474.968 311.992 474.968 311.992 473.409C311.993 471.851 314.356 471.851 314.356 473.409Z" fill="#ffffff" fill-rule="nonzero" opacity="1" stroke="none"/>
<g opacity="1">
<g opacity="1">
<path d="M161.739 466.549L163.511 472.637L165.366 466.549L167.581 466.549L164.758 474.689L162.428 474.689L161.591 472.293L160.869 469.585L160.147 472.293L159.31 474.689L156.98 474.689L154.141 466.549L156.372 466.549L158.227 472.637L159.983 466.549L161.739 466.549Z" fill="#ffffff" fill-rule="nonzero" opacity="1" stroke="none"/>
<path d="M176.713 466.549L178.485 472.637L180.34 466.549L182.555 466.549L179.732 474.689L177.402 474.689L176.565 472.293L175.843 469.585L175.121 472.293L174.284 474.689L171.954 474.689L169.115 466.549L171.346 466.549L173.201 472.637L174.957 466.549L176.713 466.549Z" fill="#ffffff" fill-rule="nonzero" opacity="1" stroke="none"/>
<path d="M191.687 466.549L193.459 472.637L195.314 466.549L197.529 466.549L194.706 474.689L192.376 474.689L191.539 472.293L190.817 469.585L190.095 472.293L189.258 474.689L186.928 474.689L184.089 466.549L186.32 466.549L188.175 472.637L189.931 466.549L191.687 466.549Z" fill="#ffffff" fill-rule="nonzero" opacity="1" stroke="none"/>
</g>
<path d="M200.908 473.52C200.908 475.079 198.544 475.079 198.544 473.52C198.545 471.962 200.908 471.962 200.908 473.52Z" fill="#ffffff" fill-rule="nonzero" opacity="1" stroke="none"/>
<path d="M322.71 473.409C321.775 474.328 320.791 474.689 319.593 474.689C317.247 474.689 315.293 473.278 315.293 470.407C315.293 467.536 317.246 466.123 319.593 466.123C320.742 466.123 321.628 466.452 322.514 467.322L321.25 468.651C320.774 468.223 320.184 468.011 319.627 468.011C318.281 468.011 317.297 468.996 317.297 470.407C317.297 471.949 318.347 472.769 319.594 472.769C320.234 472.769 320.874 472.589 321.366 472.097L322.71 473.409Z" fill="#ffffff" fill-rule="nonzero" opacity="1" stroke="none"/>
<path d="M331.805 470.472C331.805 472.802 330.214 474.689 327.588 474.689C324.962 474.689 323.387 472.802 323.387 470.472C323.387 468.158 324.996 466.255 327.572 466.255C330.149 466.255 331.805 468.158 331.805 470.472ZM325.389 470.472C325.389 471.703 326.128 472.852 327.588 472.852C329.048 472.852 329.787 471.703 329.787 470.472C329.787 469.257 328.933 468.076 327.588 468.076C326.144 468.077 325.389 469.258 325.389 470.472Z" fill="#ffffff" fill-rule="nonzero" opacity="1" stroke="none"/>
<path d="M338.572 474.689L338.572 470.357C338.572 469.289 338.013 468.322 336.914 468.322C335.832 468.322 335.192 469.289 335.192 470.357L335.192 474.689L333.189 474.689L333.189 466.582L335.044 466.582L335.192 467.567C335.618 466.747 336.554 466.451 337.325 466.451C338.294 466.451 339.262 466.845 339.721 467.961C340.444 466.812 341.379 466.483 342.429 466.483C344.726 466.483 345.859 467.895 345.859 470.323L345.859 474.688L343.856 474.688L343.856 470.323C343.856 469.257 343.414 468.353 342.33 468.353C341.248 468.353 340.574 469.288 340.574 470.356L340.574 474.688L338.572 474.688L338.572 474.689Z" fill="#ffffff" fill-rule="nonzero" opacity="1" stroke="none"/>
</g>
</g>
<g opacity="0.61">
<g opacity="1">
<path d="M345.988 431.299C345.982 430.075 345.029 429.178 343.799 429.159C342.875 429.145 342.967 429.279 342.965 428.292C342.962 427.195 342.958 426.098 342.968 425C342.971 424.621 342.856 424.309 342.606 424.024C340.264 421.356 337.928 418.682 335.587 416.013C335.467 415.876 335.312 415.769 335.173 415.647C328.959 415.647 322.746 415.647 316.532 415.647C315.738 415.94 315.392 416.515 315.394 417.356C315.404 421.104 315.398 424.852 315.398 428.599C315.398 429.155 315.395 429.188 314.848 429.15C313.351 429.048 312.332 430.136 312.351 431.642C312.395 435.118 312.364 438.595 312.365 442.071C312.366 443.651 313.232 444.514 314.815 444.52C315.397 444.522 315.397 444.522 315.397 445.12C315.397 447.339 315.396 449.558 315.398 451.777C315.399 452.969 315.978 453.548 317.166 453.548C325.179 453.549 333.193 453.549 341.206 453.548C342.374 453.548 342.961 452.965 342.963 451.803C342.965 449.547 342.963 447.291 342.964 445.035C342.964 444.523 342.966 444.524 343.484 444.52C343.755 444.518 344.025 444.528 344.293 444.462C345.289 444.216 345.983 443.418 345.987 442.393C346.003 438.696 346.005 434.997 345.988 431.299ZM317.537 417.162C322.874 417.162 328.211 417.162 333.547 417.162C334.095 417.162 334.101 417.169 334.101 417.723C334.102 419.966 334.1 422.209 334.102 424.453C334.103 425.264 334.351 425.512 335.162 425.512C337.072 425.513 338.983 425.512 340.893 425.513C341.351 425.513 341.372 425.534 341.374 425.996C341.377 426.883 341.376 427.771 341.374 428.658C341.373 429.135 341.35 429.156 340.87 429.157C336.975 429.158 333.08 429.157 329.186 429.157C325.304 429.157 321.421 429.157 317.539 429.157C316.989 429.157 316.987 429.156 316.987 428.596C316.986 424.972 316.986 421.349 316.987 417.725C316.987 417.166 316.991 417.162 317.537 417.162ZM340.822 451.579C336.939 451.58 333.056 451.579 329.172 451.579C325.301 451.579 321.43 451.579 317.559 451.579C316.987 451.579 316.985 451.577 316.985 451C316.984 449.003 316.984 447.006 316.986 445.009C316.986 444.545 317.009 444.523 317.464 444.522C325.267 444.521 333.071 444.521 340.874 444.522C341.352 444.522 341.373 444.542 341.373 445.025C341.375 447.022 341.374 449.019 341.373 451.016C341.375 451.574 341.37 451.579 340.822 451.579Z" fill="#ffffff" fill-rule="nonzero" opacity="1" stroke="none"/>
<g opacity="1">
<path d="M327.418 417.053L329.175 417.053L329.175 417.053L329.175 418.107L329.175 418.107L327.418 418.107L327.418 418.107L327.418 417.053L327.418 417.053Z" fill="#ffffff" fill-rule="nonzero" opacity="1" stroke="none"/>
<path d="M325.662 418.107L327.419 418.107L327.419 418.107L327.419 419.161L327.419 419.161L325.662 419.161L325.662 419.161L325.662 418.107L325.662 418.107Z" fill="#ffffff" fill-rule="nonzero" opacity="1" stroke="none"/>
<path d="M327.418 419.161L329.175 419.161L329.175 419.161L329.175 420.215L329.175 420.215L327.418 420.215L327.418 420.215L327.418 419.161L327.418 419.161Z" fill="#ffffff" fill-rule="nonzero" opacity="1" stroke="none"/>
<path d="M325.662 420.215L327.419 420.215L327.419 420.215L327.419 421.269L327.419 421.269L325.662 421.269L325.662 421.269L325.662 420.215L325.662 420.215Z" fill="#ffffff" fill-rule="nonzero" opacity="1" stroke="none"/>
<path d="M327.418 421.269L329.175 421.269L329.175 421.269L329.175 422.323L329.175 422.323L327.418 422.323L327.418 422.323L327.418 421.269L327.418 421.269Z" fill="#ffffff" fill-rule="nonzero" opacity="1" stroke="none"/>
<path d="M325.662 422.323L327.419 422.323L327.419 422.323L327.419 423.377L327.419 423.377L325.662 423.377L325.662 423.377L325.662 422.323L325.662 422.323Z" fill="#ffffff" fill-rule="nonzero" opacity="1" stroke="none"/>
<path d="M327.418 423.378L329.175 423.378L329.175 423.378L329.175 424.432L329.175 424.432L327.418 424.432L327.418 424.432L327.418 423.378L327.418 423.378Z" fill="#ffffff" fill-rule="nonzero" opacity="1" stroke="none"/>
<path d="M325.662 424.432L327.419 424.432L327.419 424.432L327.419 425.486L327.419 425.486L325.662 425.486L325.662 425.486L325.662 424.432L325.662 424.432Z" fill="#ffffff" fill-rule="nonzero" opacity="1" stroke="none"/>
<path d="M327.418 425.486L329.175 425.486L329.175 425.486L329.175 426.54L329.175 426.54L327.418 426.54L327.418 426.54L327.418 425.486L327.418 425.486Z" fill="#ffffff" fill-rule="nonzero" opacity="1" stroke="none"/>
<path d="M325.662 426.54L327.419 426.54L327.419 426.54L327.419 427.594L327.419 427.594L325.662 427.594L325.662 427.594L325.662 426.54L325.662 426.54Z" fill="#ffffff" fill-rule="nonzero" opacity="1" stroke="none"/>
<path d="M327.418 427.594L329.175 427.594L329.175 427.594L329.175 428.648L329.175 428.648L327.418 428.648L327.418 428.648L327.418 427.594L327.418 427.594Z" fill="#ffffff" fill-rule="nonzero" opacity="1" stroke="none"/>
<path d="M325.662 428.648L327.419 428.648L327.419 428.648L327.419 429.702L327.419 429.702L325.662 429.702L325.662 429.702L325.662 428.648L325.662 428.648Z" fill="#ffffff" fill-rule="nonzero" opacity="1" stroke="none"/>
</g>
</g>
<path d="M187.637 431.299C187.631 430.075 186.678 429.178 185.448 429.159C184.524 429.145 184.616 429.279 184.614 428.292C184.611 427.195 184.607 426.098 184.617 425C184.62 424.621 184.505 424.309 184.255 424.024C181.913 421.356 179.577 418.682 177.236 416.013C177.116 415.876 176.961 415.769 176.822 415.647C170.608 415.647 164.395 415.647 158.181 415.647C157.387 415.94 157.041 416.515 157.043 417.356C157.053 421.104 157.047 424.852 157.047 428.599C157.047 429.155 157.044 429.188 156.497 429.15C155 429.048 153.981 430.136 154 431.642C154.044 435.118 154.013 438.595 154.014 442.071C154.015 443.651 154.881 444.514 156.464 444.52C157.046 444.522 157.046 444.522 157.046 445.12C157.046 447.339 157.045 449.558 157.047 451.777C157.048 452.969 157.627 453.548 158.815 453.548C166.828 453.549 174.842 453.549 182.855 453.548C184.023 453.548 184.61 452.965 184.612 451.803C184.614 449.547 184.612 447.291 184.613 445.035C184.613 444.523 184.615 444.524 185.133 444.52C185.404 444.518 185.674 444.528 185.942 444.462C186.938 444.216 187.632 443.418 187.636 442.393C187.652 438.696 187.655 434.997 187.637 431.299ZM159.187 417.162C164.524 417.162 169.861 417.162 175.197 417.162C175.745 417.162 175.751 417.169 175.751 417.723C175.752 419.966 175.75 422.209 175.752 424.453C175.753 425.264 176.001 425.512 176.812 425.512C178.722 425.513 180.633 425.512 182.543 425.513C183.001 425.513 183.022 425.534 183.024 425.996C183.027 426.883 183.026 427.771 183.024 428.658C183.023 429.135 183 429.156 182.52 429.157C178.625 429.158 174.73 429.157 170.836 429.157C166.954 429.157 163.071 429.157 159.189 429.157C158.639 429.157 158.637 429.156 158.637 428.596C158.636 424.972 158.636 421.349 158.637 417.725C158.636 417.166 158.64 417.162 159.187 417.162ZM182.472 451.579C178.589 451.58 174.706 451.579 170.822 451.579C166.951 451.579 163.08 451.579 159.209 451.579C158.637 451.579 158.635 451.577 158.635 451C158.634 449.003 158.634 447.006 158.636 445.009C158.636 444.545 158.659 444.523 159.114 444.522C166.917 444.521 174.721 444.521 182.524 444.522C183.002 444.522 183.023 444.542 183.023 445.025C183.025 447.022 183.024 449.019 183.023 451.016C183.024 451.574 183.019 451.579 182.472 451.579Z" fill="#ffffff" fill-rule="nonzero" opacity="1" stroke="none"/>
<g opacity="1">
<path d="M159.779 440.669L159.779 432.772L162.558 432.772C162.933 432.772 163.284 432.833 163.611 432.954C163.938 433.075 164.223 433.246 164.466 433.467C164.708 433.688 164.9 433.95 165.039 434.256C165.179 434.561 165.249 434.898 165.249 435.265C165.249 435.64 165.179 435.98 165.039 436.285C164.899 436.59 164.708 436.853 164.466 437.074C164.223 437.295 163.938 437.466 163.611 437.587C163.284 437.708 162.933 437.769 162.558 437.769L161.268 437.769L161.268 440.67L159.779 440.67L159.779 440.669ZM162.58 436.356C162.97 436.356 163.264 436.245 163.462 436.025C163.661 435.805 163.76 435.551 163.76 435.264C163.76 435.124 163.736 434.988 163.688 434.856C163.64 434.724 163.567 434.608 163.467 434.509C163.368 434.41 163.244 434.331 163.097 434.272C162.95 434.213 162.777 434.183 162.579 434.183L161.267 434.183L161.267 436.356C161.267 436.356 162.58 436.356 162.58 436.356Z" fill="#ffffff" fill-rule="nonzero" opacity="1" stroke="none"/>
<path d="M166.308 432.771L168.039 432.771L171.216 438.065L171.304 438.065L171.216 436.543L171.216 432.771L172.694 432.771L172.694 440.668L171.128 440.668L167.775 435.076L167.687 435.076L167.775 436.598L167.775 440.668L166.308 440.668C166.308 440.668 166.308 432.771 166.308 432.771Z" fill="#ffffff" fill-rule="nonzero" opacity="1" stroke="none"/>
<path d="M177.922 436.334L181.794 436.334C181.816 436.423 181.834 436.529 181.849 436.654C181.863 436.779 181.871 436.904 181.871 437.029C181.871 437.536 181.794 438.014 181.64 438.463C181.486 438.912 181.243 439.312 180.912 439.665C180.559 440.04 180.136 440.331 179.644 440.536C179.151 440.742 178.589 440.845 177.956 440.845C177.382 440.845 176.842 440.742 176.334 440.536C175.827 440.33 175.386 440.044 175.011 439.676C174.636 439.309 174.338 438.873 174.117 438.369C173.896 437.865 173.786 437.316 173.786 436.72C173.786 436.125 173.896 435.575 174.117 435.071C174.338 434.567 174.635 434.132 175.011 433.764C175.386 433.397 175.827 433.11 176.334 432.904C176.841 432.698 177.382 432.595 177.956 432.595C178.596 432.595 179.167 432.705 179.671 432.926C180.175 433.147 180.606 433.452 180.967 433.841L179.942 434.845C179.684 434.573 179.398 434.365 179.081 434.222C178.765 434.079 178.386 434.007 177.945 434.007C177.584 434.007 177.242 434.072 176.919 434.2C176.595 434.329 176.312 434.511 176.069 434.746C175.827 434.981 175.633 435.266 175.49 435.601C175.347 435.936 175.275 436.309 175.275 436.72C175.275 437.132 175.347 437.505 175.49 437.84C175.633 438.175 175.828 438.46 176.074 438.695C176.32 438.93 176.605 439.113 176.929 439.241C177.252 439.37 177.598 439.434 177.966 439.434C178.385 439.434 178.739 439.373 179.03 439.252C179.32 439.131 179.568 438.974 179.774 438.783C179.922 438.651 180.049 438.483 180.155 438.281C180.261 438.079 180.344 437.853 180.403 437.603L177.921 437.603L177.921 436.334L177.922 436.334Z" fill="#ffffff" fill-rule="nonzero" opacity="1" stroke="none"/>
</g>
<path d="M224.019 431.299C224.013 430.075 223.06 429.178 221.83 429.159C220.906 429.145 220.998 429.279 220.996 428.292C220.993 427.195 220.989 426.098 220.999 425C221.002 424.621 220.887 424.309 220.637 424.024C218.295 421.356 215.959 418.682 213.618 416.013C213.498 415.876 213.343 415.769 213.204 415.647C206.99 415.647 200.777 415.647 194.563 415.647C193.769 415.94 193.423 416.515 193.425 417.356C193.435 421.104 193.429 424.852 193.429 428.599C193.429 429.155 193.426 429.188 192.879 429.15C191.382 429.048 190.363 430.136 190.382 431.642C190.426 435.118 190.395 438.595 190.396 442.071C190.397 443.651 191.263 444.514 192.846 444.52C193.428 444.522 193.428 444.522 193.428 445.12C193.428 447.339 193.427 449.558 193.429 451.777C193.43 452.969 194.009 453.548 195.197 453.548C203.21 453.549 211.224 453.549 219.237 453.548C220.405 453.548 220.992 452.965 220.994 451.803C220.996 449.547 220.994 447.291 220.995 445.035C220.995 444.523 220.997 444.524 221.515 444.52C221.786 444.518 222.056 444.528 222.324 444.462C223.321 444.216 224.014 443.418 224.018 442.393C224.034 438.696 224.036 434.997 224.019 431.299ZM195.568 417.162C200.905 417.162 206.242 417.162 211.578 417.162C212.126 417.162 212.132 417.169 212.132 417.723C212.133 419.966 212.131 422.209 212.133 424.453C212.134 425.264 212.382 425.512 213.193 425.512C215.103 425.513 217.014 425.512 218.924 425.513C219.382 425.513 219.403 425.534 219.405 425.996C219.408 426.883 219.407 427.771 219.405 428.658C219.404 429.135 219.381 429.156 218.901 429.157C215.006 429.158 211.111 429.157 207.217 429.157C203.335 429.157 199.452 429.157 195.57 429.157C195.02 429.157 195.018 429.156 195.018 428.596C195.017 424.972 195.017 421.349 195.018 417.725C195.018 417.166 195.022 417.162 195.568 417.162ZM218.854 451.579C214.971 451.58 211.088 451.579 207.204 451.579C203.333 451.579 199.462 451.579 195.591 451.579C195.019 451.579 195.017 451.577 195.017 451C195.016 449.003 195.016 447.006 195.018 445.009C195.018 444.545 195.041 444.523 195.496 444.522C203.299 444.521 211.103 444.521 218.906 444.522C219.384 444.522 219.405 444.542 219.405 445.025C219.407 447.022 219.406 449.019 219.405 451.016C219.406 451.574 219.401 451.579 218.854 451.579Z" fill="#ffffff" fill-rule="nonzero" opacity="1" stroke="none"/>
<g opacity="1">
<path d="M205.111 432.771L206.81 432.771L209.777 440.668L208.133 440.668L207.482 438.782L204.438 438.782L203.787 440.668L202.144 440.668L205.111 432.771ZM206.997 437.415L206.291 435.441L206.004 434.481L205.916 434.481L205.629 435.441L204.923 437.415L206.997 437.415Z" fill="#ffffff" fill-rule="nonzero" opacity="1" stroke="none"/>
<path d="M211.331 434.536C211.206 434.536 211.086 434.512 210.972 434.464C210.858 434.416 210.759 434.35 210.674 434.265C210.59 434.181 210.523 434.083 210.476 433.973C210.428 433.863 210.404 433.741 210.404 433.609C210.404 433.477 210.428 433.355 210.476 433.245C210.524 433.135 210.59 433.037 210.674 432.953C210.758 432.869 210.858 432.802 210.972 432.755C211.086 432.707 211.205 432.683 211.331 432.683C211.588 432.683 211.809 432.773 211.993 432.953C212.177 433.134 212.269 433.352 212.269 433.609C212.269 433.866 212.177 434.085 211.993 434.265C211.809 434.446 211.589 434.536 211.331 434.536ZM210.615 440.669L210.615 435.265L212.06 435.265L212.06 440.669L210.615 440.669Z" fill="#ffffff" fill-rule="nonzero" opacity="1" stroke="none"/>
</g>
<path d="M261.044 431.299C261.038 430.075 260.085 429.178 258.855 429.159C257.931 429.145 258.023 429.279 258.021 428.292C258.018 427.195 258.014 426.098 258.024 425C258.027 424.621 257.912 424.309 257.662 424.024C255.32 421.356 252.984 418.682 250.643 416.013C250.523 415.876 250.368 415.769 250.229 415.647C244.015 415.647 237.802 415.647 231.588 415.647C230.794 415.94 230.448 416.515 230.45 417.356C230.46 421.104 230.454 424.852 230.454 428.599C230.454 429.155 230.451 429.188 229.904 429.15C228.407 429.048 227.388 430.136 227.407 431.642C227.451 435.118 227.42 438.595 227.421 442.071C227.422 443.651 228.288 444.514 229.871 444.52C230.453 444.522 230.453 444.522 230.453 445.12C230.453 447.339 230.452 449.558 230.454 451.777C230.455 452.969 231.034 453.548 232.222 453.548C240.235 453.549 248.249 453.549 256.262 453.548C257.43 453.548 258.017 452.965 258.019 451.803C258.021 449.547 258.019 447.291 258.02 445.035C258.02 444.523 258.022 444.524 258.54 444.52C258.811 444.518 259.081 444.528 259.349 444.462C260.345 444.216 261.039 443.418 261.043 442.393C261.059 438.696 261.061 434.997 261.044 431.299ZM232.593 417.162C237.93 417.162 243.267 417.162 248.603 417.162C249.151 417.162 249.157 417.169 249.157 417.723C249.158 419.966 249.156 422.209 249.158 424.453C249.159 425.264 249.407 425.512 250.218 425.512C252.128 425.513 254.039 425.512 255.949 425.513C256.407 425.513 256.428 425.534 256.43 425.996C256.433 426.883 256.432 427.771 256.43 428.658C256.429 429.135 256.406 429.156 255.926 429.157C252.031 429.158 248.136 429.157 244.242 429.157C240.36 429.157 236.477 429.157 232.595 429.157C232.045 429.157 232.043 429.156 232.043 428.596C232.042 424.972 232.042 421.349 232.043 417.725C232.042 417.166 232.047 417.162 232.593 417.162ZM255.878 451.579C251.995 451.58 248.112 451.579 244.228 451.579C240.357 451.579 236.486 451.579 232.615 451.579C232.043 451.579 232.041 451.577 232.041 451C232.04 449.003 232.04 447.006 232.042 445.009C232.042 444.545 232.065 444.523 232.52 444.522C240.323 444.521 248.127 444.521 255.93 444.522C256.408 444.522 256.429 444.542 256.429 445.025C256.431 447.022 256.43 449.019 256.429 451.016C256.431 451.574 256.426 451.579 255.878 451.579Z" fill="#ffffff" fill-rule="nonzero" opacity="1" stroke="none"/>
<g opacity="1">
<path d="M236.361 440.845C236.023 440.845 235.699 440.797 235.39 440.702C235.081 440.607 234.798 440.463 234.541 440.272C234.284 440.081 234.06 439.847 233.868 439.572C233.677 439.296 233.526 438.975 233.416 438.607L234.817 438.056C234.92 438.453 235.1 438.782 235.357 439.043C235.614 439.304 235.953 439.435 236.372 439.435C236.526 439.435 236.675 439.415 236.819 439.374C236.962 439.334 237.091 439.275 237.205 439.198C237.319 439.121 237.409 439.023 237.475 438.906C237.541 438.788 237.574 438.652 237.574 438.498C237.574 438.351 237.548 438.219 237.497 438.101C237.446 437.984 237.359 437.874 237.238 437.77C237.117 437.667 236.958 437.568 236.763 437.472C236.568 437.377 236.328 437.277 236.041 437.174L235.556 436.998C235.343 436.925 235.127 436.825 234.911 436.7C234.694 436.575 234.498 436.424 234.321 436.248C234.144 436.072 233.999 435.864 233.885 435.625C233.771 435.386 233.714 435.116 233.714 434.815C233.714 434.506 233.774 434.218 233.896 433.949C234.017 433.681 234.19 433.446 234.414 433.243C234.638 433.041 234.906 432.883 235.219 432.769C235.532 432.655 235.879 432.598 236.261 432.598C236.658 432.598 237.001 432.651 237.292 432.758C237.583 432.865 237.829 433.001 238.031 433.166C238.233 433.331 238.397 433.514 238.522 433.712C238.647 433.911 238.739 434.098 238.798 434.275L237.486 434.826C237.412 434.605 237.278 434.407 237.084 434.23C236.889 434.054 236.622 433.965 236.284 433.965C235.96 433.965 235.692 434.04 235.479 434.191C235.266 434.342 235.159 434.539 235.159 434.781C235.159 435.016 235.262 435.217 235.468 435.382C235.674 435.547 236.001 435.707 236.45 435.862L236.947 436.027C237.263 436.138 237.552 436.264 237.813 436.408C238.074 436.551 238.298 436.722 238.486 436.921C238.673 437.12 238.817 437.346 238.916 437.599C239.016 437.853 239.065 438.145 239.065 438.476C239.065 438.888 238.982 439.243 238.817 439.54C238.652 439.838 238.44 440.082 238.183 440.274C237.925 440.465 237.635 440.609 237.311 440.704C236.986 440.797 236.67 440.845 236.361 440.845Z" fill="#ffffff" fill-rule="nonzero" opacity="1" stroke="none"/>
<path d="M239.516 432.771L241.126 432.771L242.759 437.525L243.046 438.54L243.134 438.54L243.443 437.525L245.142 432.771L246.752 432.771L243.873 440.668L242.307 440.668L239.516 432.771Z" fill="#ffffff" fill-rule="nonzero" opacity="1" stroke="none"/>
<path d="M251.097 436.334L254.968 436.334C254.99 436.423 255.008 436.529 255.023 436.654C255.038 436.779 255.046 436.904 255.046 437.029C255.046 437.536 254.968 438.014 254.814 438.463C254.66 438.912 254.417 439.312 254.086 439.665C253.733 440.04 253.311 440.331 252.818 440.536C252.325 440.742 251.763 440.845 251.13 440.845C250.556 440.845 250.016 440.742 249.509 440.536C249.002 440.33 248.56 440.044 248.185 439.676C247.81 439.309 247.512 438.873 247.291 438.369C247.071 437.865 246.96 437.316 246.96 436.72C246.96 436.125 247.07 435.575 247.291 435.071C247.512 434.567 247.809 434.132 248.185 433.764C248.56 433.397 249.001 433.11 249.509 432.904C250.016 432.698 250.556 432.595 251.13 432.595C251.77 432.595 252.341 432.705 252.845 432.926C253.349 433.147 253.781 433.452 254.141 433.841L253.115 434.845C252.858 434.573 252.571 434.365 252.254 434.222C251.938 434.079 251.56 434.007 251.118 434.007C250.758 434.007 250.416 434.072 250.092 434.2C249.769 434.329 249.485 434.511 249.243 434.746C249 434.981 248.807 435.266 248.664 435.601C248.521 435.936 248.449 436.309 248.449 436.72C248.449 437.132 248.521 437.505 248.664 437.84C248.807 438.175 249.002 438.46 249.249 438.695C249.495 438.93 249.78 439.113 250.103 439.241C250.427 439.37 250.772 439.434 251.14 439.434C251.559 439.434 251.914 439.373 252.204 439.252C252.494 439.131 252.743 438.974 252.949 438.783C253.096 438.651 253.223 438.483 253.329 438.281C253.436 438.079 253.518 437.853 253.577 437.603L251.095 437.603L251.095 436.334L251.097 436.334Z" fill="#ffffff" fill-rule="nonzero" opacity="1" stroke="none"/>
</g>
<path d="M297.3 431.299C297.294 430.075 296.341 429.178 295.111 429.159C294.187 429.145 294.279 429.279 294.277 428.292C294.274 427.195 294.27 426.098 294.28 425C294.283 424.621 294.168 424.309 293.918 424.024C291.576 421.356 289.24 418.682 286.899 416.013C286.779 415.876 286.624 415.769 286.485 415.647C280.271 415.647 274.058 415.647 267.844 415.647C267.05 415.94 266.704 416.515 266.706 417.356C266.716 421.104 266.71 424.852 266.71 428.599C266.71 429.155 266.707 429.188 266.16 429.15C264.663 429.048 263.644 430.136 263.663 431.642C263.707 435.118 263.676 438.595 263.677 442.071C263.678 443.651 264.544 444.514 266.127 444.52C266.709 444.522 266.709 444.522 266.709 445.12C266.709 447.339 266.708 449.558 266.71 451.777C266.711 452.969 267.29 453.548 268.478 453.548C276.491 453.549 284.505 453.549 292.518 453.548C293.686 453.548 294.273 452.965 294.275 451.803C294.277 449.547 294.275 447.291 294.276 445.035C294.276 444.523 294.278 444.524 294.796 444.52C295.067 444.518 295.337 444.528 295.605 444.462C296.601 444.216 297.295 443.418 297.299 442.393C297.315 438.696 297.318 434.997 297.3 431.299ZM268.85 417.162C274.187 417.162 279.524 417.162 284.86 417.162C285.408 417.162 285.414 417.169 285.414 417.723C285.415 419.966 285.413 422.209 285.415 424.453C285.416 425.264 285.664 425.512 286.475 425.512C288.385 425.513 290.296 425.512 292.206 425.513C292.664 425.513 292.685 425.534 292.687 425.996C292.69 426.883 292.689 427.771 292.687 428.658C292.686 429.135 292.663 429.156 292.183 429.157C288.288 429.158 284.393 429.157 280.499 429.157C276.617 429.157 272.734 429.157 268.852 429.157C268.302 429.157 268.3 429.156 268.3 428.596C268.299 424.972 268.299 421.349 268.3 417.725C268.299 417.166 268.303 417.162 268.85 417.162ZM292.135 451.579C288.252 451.58 284.369 451.579 280.485 451.579C276.614 451.579 272.743 451.579 268.872 451.579C268.3 451.579 268.298 451.577 268.298 451C268.297 449.003 268.297 447.006 268.299 445.009C268.299 444.545 268.322 444.523 268.777 444.522C276.58 444.521 284.384 444.521 292.187 444.522C292.665 444.522 292.686 444.542 292.686 445.025C292.687 447.022 292.687 449.019 292.686 451.016C292.687 451.574 292.682 451.579 292.135 451.579Z" fill="#ffffff" fill-rule="nonzero" opacity="1" stroke="none"/>
<g opacity="1">
<path d="M272.966 434.183L272.966 436.014L276.131 436.014L276.131 437.426L272.966 437.426L272.966 439.257L276.484 439.257L276.484 440.669L271.477 440.669L271.477 432.772L276.484 432.772L276.484 434.184L272.966 434.184L272.966 434.183Z" fill="#ffffff" fill-rule="nonzero" opacity="1" stroke="none"/>
<path d="M277.852 440.669L277.852 432.772L280.631 432.772C281.006 432.772 281.357 432.833 281.684 432.954C282.011 433.075 282.296 433.246 282.539 433.467C282.782 433.688 282.973 433.95 283.113 434.256C283.253 434.561 283.322 434.898 283.322 435.265C283.322 435.64 283.252 435.98 283.113 436.285C282.973 436.59 282.782 436.853 282.539 437.074C282.296 437.295 282.011 437.466 281.684 437.587C281.357 437.708 281.006 437.769 280.631 437.769L279.341 437.769L279.341 440.67L277.852 440.67L277.852 440.669ZM280.653 436.356C281.042 436.356 281.337 436.245 281.535 436.025C281.734 435.805 281.833 435.551 281.833 435.264C281.833 435.124 281.809 434.988 281.761 434.856C281.713 434.724 281.64 434.608 281.54 434.509C281.441 434.41 281.318 434.331 281.17 434.272C281.023 434.213 280.85 434.183 280.652 434.183L279.34 434.183L279.34 436.356C279.34 436.356 280.653 436.356 280.653 436.356Z" fill="#ffffff" fill-rule="nonzero" opacity="1" stroke="none"/>
<path d="M286.797 440.845C286.459 440.845 286.135 440.797 285.826 440.702C285.517 440.607 285.234 440.463 284.977 440.272C284.72 440.081 284.495 439.847 284.304 439.572C284.113 439.296 283.962 438.975 283.852 438.607L285.253 438.056C285.356 438.453 285.536 438.782 285.794 439.043C286.051 439.304 286.389 439.435 286.809 439.435C286.963 439.435 287.112 439.415 287.256 439.374C287.399 439.334 287.528 439.275 287.642 439.198C287.756 439.121 287.846 439.023 287.912 438.906C287.978 438.788 288.012 438.652 288.012 438.498C288.012 438.351 287.986 438.219 287.935 438.101C287.884 437.984 287.797 437.874 287.676 437.77C287.555 437.667 287.397 437.568 287.202 437.472C287.007 437.377 286.766 437.277 286.479 437.174L285.994 436.998C285.781 436.925 285.566 436.825 285.349 436.7C285.132 436.575 284.935 436.424 284.759 436.248C284.583 436.072 284.437 435.864 284.323 435.625C284.209 435.386 284.152 435.116 284.152 434.815C284.152 434.506 284.213 434.218 284.334 433.949C284.455 433.681 284.628 433.446 284.852 433.243C285.076 433.041 285.345 432.883 285.657 432.769C285.969 432.655 286.317 432.598 286.699 432.598C287.096 432.598 287.44 432.651 287.73 432.758C288.02 432.865 288.267 433.001 288.469 433.166C288.671 433.331 288.834 433.514 288.96 433.712C289.085 433.911 289.177 434.098 289.236 434.275L287.924 434.826C287.85 434.605 287.716 434.407 287.521 434.23C287.326 434.054 287.059 433.965 286.722 433.965C286.398 433.965 286.13 434.04 285.917 434.191C285.704 434.342 285.597 434.539 285.597 434.781C285.597 435.016 285.7 435.217 285.906 435.382C286.112 435.547 286.439 435.707 286.888 435.862L287.384 436.027C287.7 436.138 287.989 436.264 288.25 436.408C288.511 436.551 288.735 436.722 288.923 436.921C289.11 437.12 289.254 437.346 289.353 437.599C289.452 437.853 289.502 438.145 289.502 438.476C289.502 438.888 289.419 439.243 289.254 439.54C289.089 439.838 288.877 440.082 288.62 440.274C288.362 440.465 288.072 440.609 287.748 440.704C287.422 440.797 287.105 440.845 286.797 440.845Z" fill="#ffffff" fill-rule="nonzero" opacity="1" stroke="none"/>
</g>
<g opacity="1">
<path d="M321.394 439.168L325.398 434.183L321.571 434.183L321.571 432.771L327.13 432.771L327.13 434.271L323.17 439.256L327.174 439.256L327.174 440.668L321.395 440.668L321.395 439.168L321.394 439.168Z" fill="#ffffff" fill-rule="nonzero" opacity="1" stroke="none"/>
<path d="M328.409 432.771L329.898 432.771L329.898 440.668L328.409 440.668L328.409 432.771Z" fill="#ffffff" fill-rule="nonzero" opacity="1" stroke="none"/>
<path d="M331.486 440.669L331.486 432.772L334.265 432.772C334.64 432.772 334.991 432.833 335.318 432.954C335.645 433.075 335.93 433.246 336.173 433.467C336.416 433.688 336.607 433.95 336.747 434.256C336.887 434.561 336.956 434.898 336.956 435.265C336.956 435.64 336.886 435.98 336.747 436.285C336.607 436.59 336.416 436.853 336.173 437.074C335.93 437.295 335.645 437.466 335.318 437.587C334.991 437.708 334.64 437.769 334.265 437.769L332.975 437.769L332.975 440.67L331.486 440.67L331.486 440.669ZM334.288 436.356C334.677 436.356 334.972 436.245 335.17 436.025C335.369 435.805 335.468 435.551 335.468 435.264C335.468 435.124 335.444 434.988 335.396 434.856C335.348 434.724 335.275 434.608 335.175 434.509C335.076 434.41 334.953 434.331 334.805 434.272C334.658 434.213 334.485 434.183 334.287 434.183L332.975 434.183L332.975 436.356C332.975 436.356 334.288 436.356 334.288 436.356Z" fill="#ffffff" fill-rule="nonzero" opacity="1" stroke="none"/>
</g>
</g>
<path d="M300.133 433.27L309.2 433.27L309.2 435.512L300.133 435.512L300.133 433.27ZM300.133 437.136L309.2 437.136L309.2 439.379L300.133 439.379L300.133 437.136Z" fill="#ffffff" fill-rule="nonzero" opacity="0.61" stroke="none"/>
</g>
<g opacity="0.61">
<path d="M156.756 478.878L158.363 478.878C159.626 478.878 160.477 479.69 160.477 480.852C160.477 482.013 159.626 482.825 158.363 482.825L156.756 482.825L156.756 478.878ZM158.34 482.464C159.389 482.464 160.065 481.799 160.065 480.852C160.065 479.905 159.388 479.239 158.34 479.239L157.173 479.239L157.173 482.464L158.34 482.464Z" fill="#ffffff" fill-rule="nonzero" opacity="1" stroke="none"/>
<path d="M165.139 480.851C165.139 479.701 166.018 478.844 167.214 478.844C168.398 478.844 169.283 479.695 169.283 480.851C169.283 482.007 168.398 482.858 167.214 482.858C166.019 482.858 165.139 482.002 165.139 480.851ZM168.866 480.851C168.866 479.909 168.161 479.216 167.214 479.216C166.261 479.216 165.551 479.909 165.551 480.851C165.551 481.792 166.261 482.486 167.214 482.486C168.162 482.486 168.866 481.793 168.866 480.851Z" fill="#ffffff" fill-rule="nonzero" opacity="1" stroke="none"/>
<path d="M179.596 478.878L178.265 482.825L177.825 482.825L176.669 479.459L175.508 482.825L175.074 482.825L173.743 478.878L174.172 478.878L175.311 482.272L176.489 478.878L176.878 478.878L178.039 482.289L179.195 478.878L179.596 478.878Z" fill="#ffffff" fill-rule="nonzero" opacity="1" stroke="none"/>
<path d="M187.731 478.878L187.731 482.825L187.387 482.825L184.85 479.623L184.85 482.825L184.433 482.825L184.433 478.878L184.777 478.878L187.32 482.081L187.32 478.878L187.731 478.878Z" fill="#ffffff" fill-rule="nonzero" opacity="1" stroke="none"/>
<path d="M193.093 478.878L193.51 478.878L193.51 482.464L195.72 482.464L195.72 482.825L193.093 482.825L193.093 478.878Z" fill="#ffffff" fill-rule="nonzero" opacity="1" stroke="none"/>
<path d="M200.061 480.851C200.061 479.701 200.94 478.844 202.136 478.844C203.32 478.844 204.205 479.695 204.205 480.851C204.205 482.007 203.32 482.858 202.136 482.858C200.941 482.858 200.061 482.002 200.061 480.851ZM203.788 480.851C203.788 479.909 203.083 479.216 202.136 479.216C201.183 479.216 200.473 479.909 200.473 480.851C200.473 481.792 201.183 482.486 202.136 482.486C203.083 482.486 203.788 481.793 203.788 480.851Z" fill="#ffffff" fill-rule="nonzero" opacity="1" stroke="none"/>
<path d="M211.636 481.77L209.437 481.77L208.963 482.824L208.529 482.824L210.333 478.877L210.745 478.877L212.549 482.824L212.109 482.824L211.636 481.77ZM211.484 481.432L210.537 479.312L209.59 481.432L211.484 481.432Z" fill="#ffffff" fill-rule="nonzero" opacity="1" stroke="none"/>
<path d="M217.28 478.878L218.887 478.878C220.15 478.878 221.001 479.69 221.001 480.852C221.001 482.013 220.15 482.825 218.887 482.825L217.28 482.825L217.28 478.878ZM218.864 482.464C219.913 482.464 220.589 481.799 220.589 480.852C220.589 479.905 219.912 479.239 218.864 479.239L217.697 479.239L217.697 482.464L218.864 482.464Z" fill="#ffffff" fill-rule="nonzero" opacity="1" stroke="none"/>
<path d="M234.041 481.77L231.842 481.77L231.368 482.824L230.934 482.824L232.738 478.877L233.15 478.877L234.954 482.824L234.514 482.824L234.041 481.77ZM233.889 481.432L232.942 479.312L231.995 481.432L233.889 481.432Z" fill="#ffffff" fill-rule="nonzero" opacity="1" stroke="none"/>
<path d="M239.685 478.878L240.102 478.878L240.102 482.464L242.312 482.464L242.312 482.825L239.685 482.825L239.685 478.878Z" fill="#ffffff" fill-rule="nonzero" opacity="1" stroke="none"/>
<path d="M247.082 478.878L247.499 478.878L247.499 482.464L249.709 482.464L249.709 482.825L247.082 482.825L247.082 478.878Z" fill="#ffffff" fill-rule="nonzero" opacity="1" stroke="none"/>
<path d="M260.449 479.239L260.449 480.79L262.49 480.79L262.49 481.151L260.449 481.151L260.449 482.826L260.032 482.826L260.032 478.879L262.738 478.879L262.738 479.24L260.449 479.24L260.449 479.239Z" fill="#ffffff" fill-rule="nonzero" opacity="1" stroke="none"/>
<path d="M267.678 478.878L268.095 478.878L268.095 482.825L267.678 482.825L267.678 478.878Z" fill="#ffffff" fill-rule="nonzero" opacity="1" stroke="none"/>
<path d="M273.456 478.878L273.873 478.878L273.873 482.464L276.083 482.464L276.083 482.825L273.456 482.825C273.456 482.825 273.456 478.878 273.456 478.878Z" fill="#ffffff" fill-rule="nonzero" opacity="1" stroke="none"/>
<path d="M283.644 482.464L283.644 482.825L280.853 482.825L280.853 478.878L283.559 478.878L283.559 479.239L281.27 479.239L281.27 480.643L283.311 480.643L283.311 480.998L281.27 480.998L281.27 482.464L283.644 482.464Z" fill="#ffffff" fill-rule="nonzero" opacity="1" stroke="none"/>
<path d="M294.672 479.239L294.672 480.79L296.713 480.79L296.713 481.151L294.672 481.151L294.672 482.826L294.255 482.826L294.255 478.879L296.961 478.879L296.961 479.24L294.672 479.24L294.672 479.239Z" fill="#ffffff" fill-rule="nonzero" opacity="1" stroke="none"/>
<path d="M301.5 480.851C301.5 479.701 302.379 478.844 303.575 478.844C304.759 478.844 305.644 479.695 305.644 480.851C305.644 482.007 304.759 482.858 303.575 482.858C302.379 482.858 301.5 482.002 301.5 480.851ZM305.226 480.851C305.226 479.909 304.521 479.216 303.574 479.216C302.621 479.216 301.911 479.909 301.911 480.851C301.911 481.792 302.621 482.486 303.574 482.486C304.522 482.486 305.226 481.793 305.226 480.851Z" fill="#ffffff" fill-rule="nonzero" opacity="1" stroke="none"/>
<path d="M313.351 482.825L312.449 481.556C312.347 481.567 312.246 481.573 312.133 481.573L311.073 481.573L311.073 482.825L310.656 482.825L310.656 478.878L312.133 478.878C313.137 478.878 313.746 479.385 313.746 480.231C313.746 480.851 313.419 481.285 312.844 481.471L313.808 482.824L313.351 482.824L313.351 482.825ZM313.328 480.231C313.328 479.599 312.911 479.239 312.121 479.239L311.073 479.239L311.073 481.218L312.121 481.218C312.911 481.218 313.328 480.851 313.328 480.231Z" fill="#ffffff" fill-rule="nonzero" opacity="1" stroke="none"/>
<path d="M322.907 478.878L322.907 482.825L322.507 482.825L322.507 479.667L320.956 482.323L320.759 482.323L319.208 479.684L319.208 482.824L318.808 482.824L318.808 478.877L319.152 478.877L320.866 481.803L322.563 478.877L322.907 478.877L322.907 478.878Z" fill="#ffffff" fill-rule="nonzero" opacity="1" stroke="none"/>
<path d="M330.744 481.77L328.545 481.77L328.072 482.824L327.638 482.824L329.442 478.877L329.853 478.877L331.657 482.824L331.217 482.824L330.744 481.77ZM330.592 481.432L329.645 479.312L328.698 481.432L330.592 481.432Z" fill="#ffffff" fill-rule="nonzero" opacity="1" stroke="none"/>
<path d="M336.957 479.239L335.57 479.239L335.57 478.878L338.762 478.878L338.762 479.239L337.375 479.239L337.375 482.825L336.958 482.825L336.958 479.239L336.957 479.239Z" fill="#ffffff" fill-rule="nonzero" opacity="1" stroke="none"/>
<path d="M343.063 482.346L343.227 482.025C343.509 482.301 344.011 482.504 344.529 482.504C345.268 482.504 345.589 482.194 345.589 481.805C345.589 480.722 343.159 481.388 343.159 479.928C343.159 479.347 343.61 478.845 344.614 478.845C345.06 478.845 345.522 478.975 345.838 479.195L345.697 479.528C345.359 479.308 344.964 479.201 344.614 479.201C343.892 479.201 343.571 479.522 343.571 479.917C343.571 481 346.001 480.346 346.001 481.783C346.001 482.364 345.539 482.86 344.529 482.86C343.937 482.858 343.356 482.65 343.063 482.346Z" fill="#ffffff" fill-rule="nonzero" opacity="1" stroke="none"/>
</g>
</g>
<clipPath id="ArtboardFrame">
<rect height="500" width="500" x="0" y="0"/>
</clipPath>
<g clip-path="url(#ArtboardFrame)" id="Ohne-Titel">
<g opacity="1">
<path d="M312.412 170.772L312.412 477.351L353.709 477.351L353.709 225.837C353.709 212.072 364.908 200.87 378.673 200.87L500 201.103L500 154.905L328.509 154.672C319.642 154.672 312.412 161.905 312.412 170.772L312.412 170.772Z" fill="#231f20" fill-rule="evenodd" opacity="1" stroke="none"/>
<path d="M208.12 86.7765L-0.00018038 86.7765L-0.00018038 137.171L171.488 137.171C189.92 137.171 205.086 152.336 205.086 170.772L205.086 477.351L241.252 477.351L241.252 119.909C241.249 101.476 226.55 86.7765 208.12 86.7765L208.12 86.7765Z" fill="#231f20" fill-rule="evenodd" opacity="1" stroke="none"/>
<path d="M291.88 86.7765C273.68 86.7765 258.747 101.476 258.747 119.909L258.747 477.351L294.911 477.351L295.144 170.772C295.144 152.339 309.841 137.171 328.506 137.171L499.997 137.171L499.997 86.7765L291.88 86.7765L291.88 86.7765Z" fill="#231f20" fill-rule="evenodd" opacity="1" stroke="none"/>
<path d="M171.488 154.672L-0.00018038 154.672L-0.00018038 200.87L121.324 200.87C135.088 200.87 146.055 212.069 146.055 225.837L146.055 477.351L187.585 477.351L187.585 170.772C187.588 161.905 180.355 154.672 171.488 154.672L171.488 154.672Z" fill="#231f20" fill-rule="evenodd" opacity="1" stroke="none"/>
<path d="M500 21.2138L-0.00018038 21.2138L-0.00018038 71.378L500 71.611L500 21.2138Z" fill="#231f20" fill-rule="evenodd" opacity="1" stroke="none"/>
</g>
</g>
</svg>
